<svg 
 xmlns="http://www.w3.org/2000/svg"
 xmlns:xlink="http://www.w3.org/1999/xlink"
 width="70px" height="70px">
<path fill-rule="evenodd"  fill="rgb(255, 255, 255)"
 d="M35.000,70.000 C15.701,70.000 -0.000,54.299 -0.000,34.999 C-0.000,15.700 15.701,-0.001 35.000,-0.001 C54.299,-0.001 70.000,15.700 70.000,34.999 C70.000,54.299 54.299,70.000 35.000,70.000 ZM35.000,2.799 C17.245,2.799 2.800,17.244 2.800,34.999 C2.800,52.755 17.245,67.200 35.000,67.200 C52.755,67.200 67.200,52.755 67.200,34.999 C67.200,17.244 52.755,2.799 35.000,2.799 ZM30.669,34.999 L26.017,24.011 L51.983,34.999 L26.017,45.989 L30.669,34.999 Z"/>
</svg>