<?xml version="1.0" standalone="no"?>
<!DOCTYPE svg PUBLIC "-//W3C//DTD SVG 20010904//EN"
 "http://www.w3.org/TR/2001/REC-SVG-20010904/DTD/svg10.dtd">
<svg version="1.0" xmlns="http://www.w3.org/2000/svg"
 width="400.000000pt" height="400.000000pt" viewBox="0 0 400.000000 400.000000"
 preserveAspectRatio="xMidYMid meet">
<metadata>
Created by potrace 1.11, written by Peter Selinger 2001-2013
</metadata>
<g transform="translate(0.000000,400.000000) scale(0.100000,-0.100000)"
fill="#000000" stroke="none">
<path d="M2402 3619 c-23 -5 -98 -37 -165 -72 -67 -36 -180 -95 -252 -132 -71
-37 -175 -91 -230 -120 -143 -75 -311 -163 -455 -237 -69 -36 -172 -90 -230
-120 -58 -30 -172 -90 -255 -133 -377 -195 -380 -197 -418 -270 -14 -27 -20
-59 -21 -100 0 -63 19 -105 239 -520 23 -44 75 -143 115 -220 40 -77 99 -189
130 -250 32 -60 87 -166 122 -235 171 -329 212 -407 297 -570 100 -193 138
-238 216 -260 62 -17 124 -8 198 30 64 33 63 32 162 196 11 18 54 89 96 156
310 501 502 813 505 823 3 7 -10 16 -33 22 -116 31 -320 85 -333 88 -60 14
-247 68 -258 74 -10 6 -5 15 20 35 18 16 56 49 83 75 28 25 93 84 145 131 52
47 100 89 106 95 12 11 19 17 179 160 55 49 102 92 105 95 3 4 70 64 150 135
80 71 150 134 156 140 18 17 176 159 196 177 19 17 18 21 -82 215 -57 109
-115 221 -130 248 -15 28 -47 88 -70 135 -51 101 -79 141 -120 170 -44 31
-116 48 -168 39z"/>
<path d="M3024 2668 c-15 -23 -31 -44 -35 -46 -5 -2 -9 -7 -9 -12 0 -5 -99
-158 -220 -342 l-220 -333 72 -17 c40 -10 84 -20 98 -23 14 -3 35 -7 46 -9 25
-5 212 -46 234 -51 8 -2 42 -9 75 -15 33 -7 65 -13 72 -15 7 -2 -8 -25 -35
-53 -26 -27 -130 -136 -232 -242 -102 -105 -209 -217 -238 -248 -59 -62 -159
-166 -472 -491 -181 -188 -247 -262 -199 -225 8 6 88 49 179 96 91 47 208 108
260 136 143 75 328 170 495 257 83 43 191 99 240 125 50 26 155 81 234 121
170 87 222 131 244 205 26 87 16 118 -104 353 -62 119 -115 221 -119 226 -4 6
-56 105 -115 220 -105 206 -216 417 -221 423 -1 2 -15 -16 -30 -40z"/>
</g>
</svg>
